<?xml version="1.0" encoding="UTF-8"?>
<svg 
    width="128" 
    height="128" 
    viewBox="0 0 32 32" 
    xmlns="http://www.w3.org/2000/svg">

    <rect 
        x="0.5" 
        y="0.5" 
        width="31" 
        height="31" 
        rx="2" 
        fill="white" 
        stroke="black" 
        stroke-width="1"
    />

    <style type="text/css">
        .st1 { fill: #0066FF; }
    </style>

    <path 
        class="st1" 
        d="M28 6H18V4a2 2 0 0 0-2-2H4a2 2 0 0 0-2 2v20a2 2 0 0 0 2 2h10v2a2 2 0 0 0 2 2h12a2 2 0 0 0 2-2V8a2 2 0 0 0-2-2zM4 15h6.17l-2.58 2.59L9 19l5-5-5-5-1.41 1.41L10.17 13H4V4h12v20H4zm12 13v-2a2 2 0 0 0 2-2V8h10v9h-6.17l2.58-2.59L23 13l-5 5 5 5 1.41-1.41L21.83 19H28v9H16z"
    />
</svg>
